<?xml version="1.0" encoding="iso-8859-1"?>
<!-- Generator: Adobe Illustrator 19.0.0, SVG Export Plug-In . SVG Version: 6.00 Build 0)  -->
<svg version="1.1" id="Capa_1" xmlns="http://www.w3.org/2000/svg" xmlns:xlink="http://www.w3.org/1999/xlink" x="0px" y="0px"
	 viewBox="0 0 512 512" style="enable-background:new 0 0 512 512;" xml:space="preserve">
<g>
	<g>
		<path d="M473.6,0H38.4C17.229,0,0,17.229,0,38.4v435.2C0,494.771,17.229,512,38.4,512h435.2c21.171,0,38.4-17.229,38.4-38.4V38.4
			C512,17.229,494.771,0,473.6,0z M494.933,473.6c0,11.759-9.566,21.333-21.333,21.333H38.4c-11.759,0-21.333-9.574-21.333-21.333
			V38.4c0-11.759,9.574-21.333,21.333-21.333h435.2c11.759,0,21.333,9.574,21.333,21.333V473.6z"/>
	</g>
</g>
<g>
	<g>
		<path d="M76.8,34.133H42.667c-4.71,0-8.533,3.823-8.533,8.533V76.8c0,4.71,3.823,8.533,8.533,8.533H76.8
			c4.71,0,8.533-3.823,8.533-8.533V42.667C85.333,37.956,81.51,34.133,76.8,34.133z M68.267,68.267H51.2V51.2h17.067V68.267z"/>
	</g>
</g>
<g>
	<g>
		<path d="M145.067,34.133h-34.133c-4.71,0-8.533,3.823-8.533,8.533V76.8c0,4.71,3.823,8.533,8.533,8.533h34.133
			c4.71,0,8.533-3.823,8.533-8.533V42.667C153.6,37.956,149.777,34.133,145.067,34.133z M136.533,68.267h-17.067V51.2h17.067V68.267
			z"/>
	</g>
</g>
<g>
	<g>
		<path d="M213.333,34.133H179.2c-4.71,0-8.533,3.823-8.533,8.533V76.8c0,4.71,3.823,8.533,8.533,8.533h34.133
			c4.71,0,8.533-3.823,8.533-8.533V42.667C221.867,37.956,218.044,34.133,213.333,34.133z M204.8,68.267h-17.067V51.2H204.8V68.267z
			"/>
	</g>
</g>
<g>
	<g>
		<path d="M473.6,0H38.4C17.229,0,0,17.229,0,38.4v72.533c0,4.71,3.823,8.533,8.533,8.533h494.933c4.71,0,8.533-3.823,8.533-8.533
			V38.4C512,17.229,494.771,0,473.6,0z M494.933,102.4H17.067v-64c0-11.759,9.574-21.333,21.333-21.333h435.2
			c11.759,0,21.333,9.574,21.333,21.333V102.4z"/>
	</g>
</g>
<g>
	<g>
		<path d="M503.467,290.133H8.533c-4.71,0-8.533,3.823-8.533,8.533v173.38C0,494.071,17.929,512,39.953,512h432.094
			C494.071,512,512,494.071,512,472.047v-173.38C512,293.956,508.177,290.133,503.467,290.133z M494.933,472.047
			c0,12.621-10.266,22.886-22.895,22.886H39.953c-12.621,0-22.886-10.266-22.886-22.886V307.2h477.867V472.047z"/>
	</g>
</g>
<g>
	<g>
		<path d="M116.966,181.7c-3.328-3.336-8.738-3.336-12.066,0l-59.733,59.733c-3.337,3.337-3.337,8.73,0,12.066
			c1.664,1.664,3.849,2.5,6.033,2.5c2.185,0,4.369-0.836,6.033-2.5l59.733-59.733C120.303,190.43,120.303,185.037,116.966,181.7z"/>
	</g>
</g>
<g>
	<g>
		<path d="M176.7,241.434L116.966,181.7c-3.328-3.336-8.738-3.336-12.066,0c-3.337,3.337-3.337,8.73,0,12.066l59.733,59.733
			c1.664,1.664,3.849,2.5,6.033,2.5c2.185,0,4.369-0.836,6.033-2.5C180.036,250.163,180.036,244.77,176.7,241.434z"/>
	</g>
</g>
<g>
	<g>
		<path d="M210.833,156.1c-3.328-3.337-8.738-3.337-12.066,0l-59.733,59.733c-3.337,3.337-3.337,8.73,0,12.066
			c1.664,1.664,3.849,2.5,6.033,2.5c2.185,0,4.369-0.836,6.033-2.5l59.733-59.733C214.17,164.83,214.17,159.437,210.833,156.1z"/>
	</g>
</g>
<g>
	<g>
		<path d="M270.566,215.834L210.833,156.1c-3.328-3.337-8.738-3.337-12.066,0c-3.337,3.337-3.337,8.73,0,12.066L258.5,227.9
			c1.664,1.664,3.849,2.5,6.033,2.5c2.185,0,4.369-0.836,6.033-2.5C273.903,224.563,273.903,219.17,270.566,215.834z"/>
	</g>
</g>
<g>
	<g>
		<path d="M313.233,369.434c-3.337-3.336-8.73-3.336-12.066,0l-59.733,59.733c-3.337,3.337-3.337,8.73,0,12.066
			c1.664,1.664,3.849,2.5,6.033,2.5c2.185,0,4.369-0.836,6.033-2.5l59.733-59.733C316.57,378.163,316.57,372.77,313.233,369.434z"/>
	</g>
</g>
<g>
	<g>
		<path d="M372.966,429.167l-59.733-59.733c-3.337-3.336-8.73-3.337-12.066,0c-3.336,3.337-3.336,8.73,0,12.066l59.733,59.733
			c1.664,1.664,3.849,2.5,6.033,2.5c2.185,0,4.369-0.836,6.033-2.5C376.303,437.897,376.303,432.503,372.966,429.167z"/>
	</g>
</g>
<g>
	<g>
		<path d="M407.1,343.834c-3.337-3.337-8.73-3.337-12.066,0L335.3,403.567c-3.337,3.337-3.337,8.73,0,12.066
			c1.664,1.664,3.849,2.5,6.033,2.5c2.185,0,4.369-0.836,6.033-2.5L407.1,355.9C410.436,352.563,410.436,347.17,407.1,343.834z"/>
	</g>
</g>
<g>
	<g>
		<path d="M466.833,403.567L407.1,343.834c-3.337-3.337-8.73-3.337-12.066,0c-3.337,3.337-3.337,8.73,0,12.066l59.733,59.733
			c1.664,1.664,3.849,2.5,6.033,2.5c2.185,0,4.369-0.836,6.033-2.5C470.17,412.297,470.17,406.903,466.833,403.567z"/>
	</g>
</g>
<g>
	<g>
		<path d="M443.733,213.333H324.267c-14.114,0-25.6,11.486-25.6,25.6s11.486,25.6,25.6,25.6h119.467c14.114,0,25.6-11.486,25.6-25.6
			S457.847,213.333,443.733,213.333z M443.733,247.467H324.267c-4.702,0-8.533-3.831-8.533-8.533c0-4.702,3.831-8.533,8.533-8.533
			h119.467c4.702,0,8.533,3.831,8.533,8.533C452.267,243.635,448.435,247.467,443.733,247.467z"/>
	</g>
</g>
<g>
	<g>
		<path d="M435.2,145.067h-128c-4.71,0-8.533,3.823-8.533,8.533c0,4.71,3.823,8.533,8.533,8.533h128c4.71,0,8.533-3.823,8.533-8.533
			C443.733,148.89,439.91,145.067,435.2,145.067z"/>
	</g>
</g>
<g>
	<g>
		<path d="M460.8,179.2H307.2c-4.71,0-8.533,3.823-8.533,8.533s3.823,8.533,8.533,8.533h153.6c4.71,0,8.533-3.823,8.533-8.533
			S465.51,179.2,460.8,179.2z"/>
	</g>
</g>
<g>
	<g>
		<path d="M187.733,409.6H68.267c-14.114,0-25.6,11.486-25.6,25.6s11.486,25.6,25.6,25.6h119.467c14.114,0,25.6-11.486,25.6-25.6
			S201.847,409.6,187.733,409.6z M187.733,443.733H68.267c-4.71,0-8.533-3.831-8.533-8.533s3.823-8.533,8.533-8.533h119.467
			c4.71,0,8.533,3.831,8.533,8.533S192.444,443.733,187.733,443.733z"/>
	</g>
</g>
<g>
	<g>
		<path d="M179.2,341.333h-128c-4.71,0-8.533,3.823-8.533,8.533S46.49,358.4,51.2,358.4h128c4.71,0,8.533-3.823,8.533-8.533
			S183.91,341.333,179.2,341.333z"/>
	</g>
</g>
<g>
	<g>
		<path d="M204.8,375.467H51.2c-4.71,0-8.533,3.823-8.533,8.533s3.823,8.533,8.533,8.533h153.6c4.71,0,8.533-3.823,8.533-8.533
			S209.51,375.467,204.8,375.467z"/>
	</g>
</g>
<g>
</g>
<g>
</g>
<g>
</g>
<g>
</g>
<g>
</g>
<g>
</g>
<g>
</g>
<g>
</g>
<g>
</g>
<g>
</g>
<g>
</g>
<g>
</g>
<g>
</g>
<g>
</g>
<g>
</g>
</svg>
